<svg width="458" height="161" viewBox="0 0 458 161" fill="none" xmlns="http://www.w3.org/2000/svg">
<path d="M375.638 158.5H403.682C406.167 158.5 408.182 156.485 408.182 154V36.6216H450.32C452.805 36.6216 454.82 34.6068 454.82 32.1216V7.00012C454.82 4.51485 452.805 2.50012 450.32 2.50012H329C326.515 2.50012 324.5 4.51484 324.5 7.00012V32.1216C324.5 34.6068 326.515 36.6216 329 36.6216H371.138V154C371.138 156.485 373.153 158.5 375.638 158.5Z" fill="url(#paint0_linear_76_19)" stroke="white" stroke-width="5"/>
<path d="M451.265 21.4627V7.02734C451.265 5.92277 450.37 5.02734 449.265 5.02734H435.857C434.753 5.02734 433.857 5.92277 433.857 7.02734V11.0038C433.857 12.1084 434.753 13.0038 435.857 13.0038H443.662L443.662 21.4627C443.662 22.5673 444.558 23.4627 445.662 23.4627H449.265C450.37 23.4627 451.265 22.5673 451.265 21.4627Z" fill="#ED6E12" stroke="white" stroke-width="2"/>
<path d="M318.84 107.201L318.853 107.22L318.865 107.239C319.985 108.895 320.596 110.93 320.596 113.461C320.596 117.449 319.226 120.223 316.634 122.157C313.887 124.139 309.879 125.278 304.328 125.278C298.603 125.278 292.318 124.018 285.447 121.422C279.431 119.148 274.015 116.245 269.187 112.719C266.883 111.036 263.48 111.82 262.3 114.575L253.258 135.691C252.514 137.43 252.924 139.506 254.409 140.803C258.233 144.139 262.68 147.094 267.73 149.677L267.746 149.685L267.762 149.693C273.348 152.45 279.216 154.605 285.363 156.158L285.368 156.159C291.583 157.715 297.656 158.5 303.58 158.5C313.253 158.5 321.775 156.653 329.063 152.864C336.394 149.08 342.072 143.698 346.03 136.739C350.044 129.708 352.003 121.507 352.003 112.225C352.003 99.8288 348.749 89.5603 342.023 81.6604C335.328 73.7979 324.46 67.739 309.793 63.2775C302.934 61.1674 297.732 59.2556 294.128 57.5491C290.605 55.7851 288.521 54.0461 287.49 52.46C286.416 50.8085 285.818 48.7284 285.818 46.0977C285.818 42.3732 287.084 39.8534 289.435 38.1311C292.016 36.2815 295.806 35.2075 301.089 35.2075C306.159 35.2075 311.79 36.2992 318.006 38.5591L318.013 38.5614C323.417 40.5092 328.23 42.9643 332.469 45.916C334.768 47.517 338.104 46.7345 339.28 44.0162L348.047 23.7467C348.837 21.9202 348.341 19.7515 346.743 18.4765C333.411 7.8398 318.247 2.50012 301.338 2.50012C291.994 2.50012 283.771 4.31373 276.755 8.04087C269.759 11.6893 264.287 16.8944 260.393 23.6277L260.389 23.6348L260.385 23.642C256.534 30.4023 254.659 38.3303 254.659 47.3337C254.659 59.7294 257.913 69.9979 264.639 77.8978C271.335 85.7611 282.204 91.8205 296.874 96.2821L296.877 96.2832C303.627 98.3251 308.684 100.262 312.132 102.077L312.155 102.089L312.179 102.101C315.716 103.868 317.807 105.612 318.84 107.201Z" fill="url(#paint1_linear_76_19)" stroke="white" stroke-width="5"/>
<path d="M320.428 38.403L320.802 37.4755L320.428 38.403C324.887 40.2 329.405 42.3262 333.23 44.1786C334.805 44.9417 336.7 44.204 337.338 42.5699L345.159 22.5489C345.614 21.3836 345.301 20.0442 344.341 19.2152C336.387 12.3414 330.424 9.66664 327.506 8.67182C325.861 8.11132 324.319 9.20275 323.977 10.7414L318.598 34.9464C318.275 36.3985 319.065 37.8536 320.428 38.403Z" fill="#ED6E12" stroke="white" stroke-width="2"/>
<path d="M229.582 125.094L237.281 155.118C237.791 157.108 239.585 158.5 241.64 158.5H261.369C264.345 158.5 266.501 155.663 265.704 152.796L225.701 8.79562C225.16 6.84798 223.386 5.50012 221.365 5.50012H201.635C199.614 5.50012 197.84 6.84801 197.299 8.79563L157.296 152.796C156.499 155.663 158.655 158.5 161.631 158.5H180.647C182.701 158.5 184.495 157.108 185.006 155.118L192.704 125.094H229.582ZM221.736 94.6173H200.554L211.173 53.2767L221.736 94.6173Z" fill="url(#paint2_linear_76_19)" stroke="white" stroke-width="5"/>
<path d="M220.338 90.4897L213.434 64.3281C212.91 62.3418 210.09 62.3418 209.566 64.3281L202.662 90.4897C202.328 91.7582 203.284 93 204.596 93H218.404C219.716 93 220.672 91.7582 220.338 90.4897Z" fill="#ED6E12" stroke="white" stroke-width="3"/>
<path d="M89 158.5H157C159.485 158.5 161.5 156.485 161.5 154V129.034C161.5 126.549 159.485 124.534 157 124.534H121.613V10C121.613 7.51472 119.598 5.5 117.113 5.5H89C86.5147 5.5 84.5 7.51472 84.5 10V154C84.5 156.485 86.5147 158.5 89 158.5Z" fill="url(#paint3_linear_76_19)" stroke="white" stroke-width="5"/>
<path d="M89 133.5H93.5C94.3284 133.5 95 134.172 95 135V146.5C95 147.881 96.1193 149 97.5 149H107C107.828 149 108.5 149.672 108.5 150.5V154C108.5 154.828 107.828 155.5 107 155.5H89C88.1716 155.5 87.5 154.828 87.5 154V135C87.5 134.172 88.1716 133.5 89 133.5Z" fill="#ED6E12" stroke="white"/>
<path d="M8 158.5H36.2275C52.2608 158.5 65.1818 154.898 74.6942 147.391C84.3038 139.808 89.0414 129.139 89.0414 115.723C89.0414 105.623 86.5992 97.0527 81.5392 90.1895C77.4394 84.6285 71.7305 80.3369 64.5334 77.2512C68.9784 74.4643 72.5399 71.0008 75.1564 66.8394C78.6891 61.2207 80.3921 54.4999 80.3921 46.7973C80.3921 34.1703 75.6486 23.9828 66.1482 16.5017C56.7253 9.08149 44.2757 5.50012 29.0548 5.50012H8C4.96243 5.50012 2.5 7.96256 2.5 11.0001V153C2.5 156.038 4.96243 158.5 8 158.5Z" fill="url(#paint4_linear_76_19)" stroke="white" stroke-width="5"/>
<path d="M56.1659 140.382H53.9705L46 95.899C47.1412 88.5981 57.5572 88.3293 59.0752 95.5612L65.9545 128.337C67.2588 134.551 62.5151 140.382 56.1659 140.382Z" fill="white"/>
<path d="M52 145H21.7555C18.716 145 16.3797 142.311 16.8046 139.301L23.2383 93.7286C24.8311 82.4467 41.0312 82.1825 42.9911 93.4064L52 145Z" fill="white"/>
<path d="M60.5319 45.2358C60.5319 56.0906 51.5276 64.946 40.3504 64.946C29.1732 64.946 20.1688 56.0906 20.1688 45.2358C20.1688 34.3811 29.1732 25.5256 40.3504 25.5256C51.5276 25.5256 60.5319 34.3811 60.5319 45.2358Z" fill="#ED6E12" stroke="white" stroke-width="3"/>
<defs>
<linearGradient id="paint0_linear_76_19" x1="389.66" y1="81.0137" x2="389.66" y2="341.925" gradientUnits="userSpaceOnUse">
<stop stop-color="#084F8C"/>
<stop offset="1" stop-color="white"/>
</linearGradient>
<linearGradient id="paint1_linear_76_19" x1="302.252" y1="81.0137" x2="302.252" y2="342.952" gradientUnits="userSpaceOnUse">
<stop stop-color="#084F8C"/>
<stop offset="1" stop-color="white"/>
</linearGradient>
<linearGradient id="paint2_linear_76_19" x1="212" y1="82.0001" x2="212" y2="332.5" gradientUnits="userSpaceOnUse">
<stop stop-color="#084F8C"/>
<stop offset="1" stop-color="white"/>
</linearGradient>
<linearGradient id="paint3_linear_76_19" x1="123" y1="82" x2="123" y2="332.5" gradientUnits="userSpaceOnUse">
<stop stop-color="#084F8C"/>
<stop offset="1" stop-color="white"/>
</linearGradient>
<linearGradient id="paint4_linear_76_19" x1="46" y1="82.0001" x2="46" y2="331.5" gradientUnits="userSpaceOnUse">
<stop stop-color="#084F8C"/>
<stop offset="1" stop-color="white"/>
</linearGradient>
</defs>
</svg>
