<svg width="579" height="162" viewBox="0 0 579 162" fill="none" xmlns="http://www.w3.org/2000/svg">
<path d="M509.417 158.5H519.59C526.493 158.5 532.09 152.904 532.09 146V44.1214C532.09 39.9793 535.447 36.6214 539.59 36.6214H563.503C570.407 36.6214 576.003 31.025 576.003 24.1214V15C576.003 8.09644 570.407 2.5 563.503 2.5H465.503C458.6 2.5 453.003 8.09643 453.003 15V24.1214C453.003 31.025 458.6 36.6214 465.503 36.6214H489.417C493.559 36.6214 496.917 39.9793 496.917 44.1214V146C496.917 152.904 502.514 158.5 509.417 158.5Z" fill="url(#paint0_linear_78_14)" stroke="white" stroke-width="5"/>
<path d="M574.912 19.4353V6.99988C574.912 5.34302 573.568 3.99988 571.912 3.99988H560.503C558.847 3.99988 557.503 5.34302 557.503 6.99988V8.97638C557.503 10.6332 558.847 11.9764 560.503 11.9764H566.309C566.861 11.9764 567.309 12.4241 567.309 12.9764V19.4352C567.309 21.0921 568.652 22.4353 570.309 22.4353H571.912C573.568 22.4353 574.912 21.0921 574.912 19.4353Z" fill="#ED6E12" stroke="white" stroke-width="2"/>
<path d="M402.84 107.201L402.853 107.22L402.865 107.239C403.985 108.895 404.596 110.93 404.596 113.46C404.596 117.449 403.226 120.222 400.634 122.157C397.887 124.138 393.879 125.278 388.328 125.278C382.603 125.278 376.318 124.018 369.447 121.422C366.768 120.409 364.208 119.272 361.767 118.011C354.904 114.466 345.463 116.53 342.177 124.204L339.485 130.491C337.43 135.29 338.485 141.212 343.052 144.452C345.71 146.337 348.604 148.078 351.73 149.677L351.746 149.685L351.762 149.693C357.348 152.45 363.216 154.605 369.363 156.158L369.368 156.159C375.583 157.715 381.656 158.5 387.58 158.5C397.252 158.5 405.773 156.654 413.06 152.865C420.393 149.081 426.072 143.699 430.03 136.738C434.044 129.708 436.003 121.507 436.003 112.224C436.003 99.8287 432.749 89.5602 426.023 81.6603C419.328 73.7975 408.46 67.7384 393.792 63.2769C386.933 61.167 381.732 59.2554 378.128 57.549C374.605 55.785 372.521 54.046 371.49 52.4599C370.416 50.8084 369.818 48.7283 369.818 46.0975C369.818 42.373 371.084 39.8533 373.435 38.131C376.016 36.2814 379.806 35.2074 385.089 35.2074C390.159 35.2074 395.79 36.2991 402.006 38.559L402.013 38.5613C404.08 39.3063 406.06 40.1254 407.955 41.018C414.81 44.2477 424.079 42.1689 427.35 34.6045L429.665 29.2539C431.845 24.2125 430.551 18.0518 425.756 14.8023C413.654 6.60261 400.159 2.5 385.338 2.5C375.994 2.5 367.771 4.31362 360.755 8.0408C353.758 11.6892 348.287 16.8943 344.393 23.6276L344.389 23.6347L344.385 23.6419C340.534 30.4022 338.659 38.3302 338.659 47.3336C338.659 59.7293 341.913 69.9978 348.639 77.8977C355.335 85.761 366.204 91.8204 380.874 96.282L380.877 96.2831C387.627 98.325 392.684 100.262 396.132 102.077L396.155 102.089L396.179 102.1C399.716 103.868 401.807 105.612 402.84 107.201Z" fill="url(#paint1_linear_78_14)" stroke="white" stroke-width="5"/>
<path d="M407.742 39.6585L408.135 38.739L407.742 39.6585C409.963 40.6077 412.161 41.6128 414.229 42.5889C417.386 44.0791 421.174 42.6199 422.452 39.348L427.762 25.7545C428.671 23.4271 428.054 20.7288 426.081 19.1169C421.404 15.2959 417.552 13.072 414.799 11.7908C411.69 10.344 408.611 12.4318 407.927 15.5111L404.108 32.6966C403.462 35.6011 405.043 38.5053 407.742 39.6585Z" fill="#ED6E12" stroke="white" stroke-width="2"/>
<path d="M284.028 131.731L288.739 150.105C290.156 155.633 295.139 159.5 300.847 159.5H303.843C312.11 159.5 318.1 151.619 315.887 143.654L280.328 15.654C278.825 10.2439 273.899 6.49988 268.284 6.49988H260.716C255.101 6.49988 250.175 10.2439 248.672 15.654L213.113 143.654C210.9 151.619 216.89 159.5 225.157 159.5H227.439C233.147 159.5 238.13 155.634 239.547 150.105L244.259 131.731C245.109 128.414 248.099 126.094 251.524 126.094H276.763C280.187 126.094 283.177 128.414 284.028 131.731ZM274.736 95.617H253.554L264.173 54.2765L274.736 95.617Z" fill="url(#paint2_linear_78_14)" stroke="white" stroke-width="5"/>
<path d="M272.944 89.1971L266.891 67.406C266.077 64.4766 261.923 64.4766 261.109 67.406L255.056 89.1971C254.525 91.1087 255.963 93 257.947 93H270.053C272.037 93 273.475 91.1087 272.944 89.1971Z" fill="#ED6E12" stroke="white" stroke-width="3"/>
<path d="M128 158.5H180C186.904 158.5 192.5 152.903 192.5 146V137.034C192.5 130.131 186.904 124.534 180 124.534H160.113C155.971 124.534 152.613 121.176 152.613 117.034V17.9999C152.613 11.0963 147.016 5.49988 140.113 5.49988H128C121.096 5.49988 115.5 11.0963 115.5 17.9999V146C115.5 152.903 121.096 158.5 128 158.5Z" fill="url(#paint3_linear_78_14)" stroke="white" stroke-width="5"/>
<path d="M118.5 152V142.284C118.5 140.746 119.746 139.5 121.284 139.5C122.822 139.5 124.068 140.746 124.068 142.284V146.13C124.068 149.168 126.531 151.63 129.568 151.63H132.065C133.41 151.63 134.5 152.72 134.5 154.065C134.5 155.41 133.41 156.5 132.065 156.5H123C120.515 156.5 118.5 154.485 118.5 152Z" fill="#ED6E12" stroke="white"/>
<path d="M15 158.5H39.8498C57.6517 158.5 71.9577 154.92 82.4935 147.47C93.1573 139.929 98.5 129.247 98.5 115.723C98.5 106.498 96.2369 98.5428 91.574 92.0038C86.9631 85.5377 80.143 80.6483 71.3069 77.242C77.0268 74.0042 81.4263 69.845 84.3924 64.7336C87.3933 59.5624 88.8473 53.5539 88.8473 46.797C88.8473 34.0586 83.4957 23.8595 72.9565 16.4229C62.5169 9.05656 48.7342 5.49988 31.8451 5.49988H15C8.09644 5.49988 2.5 11.0963 2.5 17.9999V146C2.5 152.903 8.09644 158.5 15 158.5Z" fill="url(#paint4_linear_78_14)" stroke="white" stroke-width="5"/>
<rect x="29" y="89.9999" width="13" height="50" rx="5" fill="white"/>
<rect x="45" y="94.9999" width="10" height="40" rx="5" fill="white"/>
<rect x="69" y="105" width="6" height="20" rx="3" fill="white"/>
<rect x="58" y="99.9999" width="8" height="30" rx="4" fill="white"/>
<path d="M65.1852 47.2101C65.1852 58.0801 56.2708 66.9203 45.2393 66.9203C34.2079 66.9203 25.2935 58.0801 25.2935 47.2101C25.2935 36.34 34.2079 27.4999 45.2393 27.4999C56.2708 27.4999 65.1852 36.34 65.1852 47.2101Z" fill="#ED6E12" stroke="white" stroke-width="3"/>
<defs>
<linearGradient id="paint0_linear_78_14" x1="514.503" y1="81.0136" x2="514.503" y2="341.925" gradientUnits="userSpaceOnUse">
<stop stop-color="#084F8C"/>
<stop offset="1" stop-color="white"/>
</linearGradient>
<linearGradient id="paint1_linear_78_14" x1="386.252" y1="81.0136" x2="386.252" y2="342.952" gradientUnits="userSpaceOnUse">
<stop stop-color="#084F8C"/>
<stop offset="1" stop-color="white"/>
</linearGradient>
<linearGradient id="paint2_linear_78_14" x1="265" y1="82.9999" x2="265" y2="333.5" gradientUnits="userSpaceOnUse">
<stop stop-color="#084F8C"/>
<stop offset="1" stop-color="white"/>
</linearGradient>
<linearGradient id="paint3_linear_78_14" x1="154" y1="81.9999" x2="154" y2="332.5" gradientUnits="userSpaceOnUse">
<stop stop-color="#084F8C"/>
<stop offset="1" stop-color="white"/>
</linearGradient>
<linearGradient id="paint4_linear_78_14" x1="50.7559" y1="81.9999" x2="50.7559" y2="331.5" gradientUnits="userSpaceOnUse">
<stop stop-color="#084F8C"/>
<stop offset="1" stop-color="white"/>
</linearGradient>
</defs>
</svg>
