<svg width="28" height="28" viewBox="0 0 28 28" fill="none" xmlns="http://www.w3.org/2000/svg">
<path d="M13.8085 2.33325C14.1953 2.33325 14.5662 2.4869 14.8397 2.76039C15.1132 3.03388 15.2668 3.40481 15.2668 3.79159V12.5416H24.0168C24.4036 12.5416 24.7746 12.6952 25.048 12.9687C25.3215 13.2422 25.4752 13.6131 25.4752 13.9999C25.4752 14.3867 25.3215 14.7576 25.048 15.0311C24.7746 15.3046 24.4036 15.4583 24.0168 15.4583H15.2668V24.2083C15.2668 24.595 15.1132 24.966 14.8397 25.2394C14.5662 25.5129 14.1953 25.6666 13.8085 25.6666C13.4217 25.6666 13.0508 25.5129 12.7773 25.2394C12.5038 24.966 12.3502 24.595 12.3502 24.2083V15.4583H3.60018C3.2134 15.4583 2.84247 15.3046 2.56898 15.0311C2.29549 14.7576 2.14185 14.3867 2.14185 13.9999C2.14185 13.6131 2.29549 13.2422 2.56898 12.9687C2.84247 12.6952 3.2134 12.5416 3.60018 12.5416H12.3502V3.79159C12.3502 3.40481 12.5038 3.03388 12.7773 2.76039C13.0508 2.4869 13.4217 2.33325 13.8085 2.33325V2.33325Z" fill="white"/>
</svg>
