<svg width="607" height="162" viewBox="0 0 607 162" fill="none" xmlns="http://www.w3.org/2000/svg">
<path d="M528.417 158.5H556.59C558.523 158.5 560.09 156.933 560.09 155V36.6214H600.503C602.436 36.6214 604.003 35.0544 604.003 33.1214V6C604.003 4.067 602.436 2.5 600.503 2.5H484.503C482.57 2.5 481.003 4.067 481.003 6V33.1214C481.003 35.0544 482.57 36.6214 484.503 36.6214H524.917V155C524.917 156.933 526.484 158.5 528.417 158.5Z" fill="url(#paint0_linear_78_14)" stroke="white" stroke-width="5"/>
<path d="M602.912 19.4353V6.99988C602.912 5.34302 601.568 3.99988 599.912 3.99988H588.503C586.847 3.99988 585.503 5.34302 585.503 6.99988V8.97638C585.503 10.6332 586.847 11.9764 588.503 11.9764H594.309C594.861 11.9764 595.309 12.4241 595.309 12.9764V19.4352C595.309 21.0921 596.652 22.4353 598.309 22.4353H599.912C601.568 22.4353 602.912 21.0921 602.912 19.4353Z" fill="#ED6E12" stroke="white" stroke-width="2"/>
<path d="M423.84 107.201L423.853 107.22L423.865 107.239C424.985 108.895 425.596 110.93 425.596 113.46C425.596 117.449 424.226 120.222 421.634 122.157C418.887 124.138 414.879 125.278 409.328 125.278C403.603 125.278 397.318 124.018 390.447 121.422C384.008 118.989 378.257 115.834 373.178 111.966C371.387 110.603 368.73 111.235 367.816 113.371L357.98 136.341C357.4 137.697 357.725 139.3 358.854 140.312C362.801 143.85 367.434 146.968 372.73 149.677L372.746 149.685L372.762 149.693C378.348 152.45 384.216 154.605 390.363 156.158L390.368 156.159C396.583 157.715 402.656 158.5 408.58 158.5C418.252 158.5 426.773 156.654 434.06 152.865C441.393 149.081 447.072 143.699 451.03 136.738C455.044 129.708 457.003 121.507 457.003 112.224C457.003 99.8287 453.749 89.5602 447.023 81.6603C440.328 73.7975 429.46 67.7384 414.792 63.2769C407.933 61.167 402.732 59.2554 399.128 57.549C395.605 55.785 393.521 54.046 392.49 52.4599C391.416 50.8084 390.818 48.7283 390.818 46.0975C390.818 42.373 392.084 39.8533 394.435 38.131C397.016 36.2814 400.806 35.2074 406.089 35.2074C411.159 35.2074 416.79 36.2991 423.006 38.559L423.013 38.5613C428.845 40.6633 433.989 43.3563 438.466 46.6272C440.254 47.9331 442.86 47.299 443.771 45.1926L453.345 23.0581C453.962 21.631 453.565 19.9534 452.344 18.9607C438.869 8.00321 423.504 2.5 406.338 2.5C396.994 2.5 388.771 4.31362 381.755 8.0408C374.758 11.6892 369.287 16.8943 365.393 23.6276L365.389 23.6347L365.385 23.6419C361.534 30.4022 359.659 38.3302 359.659 47.3336C359.659 59.7293 362.913 69.9978 369.639 77.8977C376.335 85.761 387.204 91.8204 401.874 96.282L401.877 96.2831C408.627 98.325 413.684 100.262 417.132 102.077L417.155 102.089L417.179 102.1C420.716 103.868 422.807 105.612 423.84 107.201Z" fill="url(#paint1_linear_78_14)" stroke="white" stroke-width="5"/>
<path d="M449.342 19.2151C441.387 12.3413 435.424 9.66652 432.506 8.6717C430.861 8.1112 429.319 9.20263 428.977 10.7413L423.598 34.9463C423.275 36.3984 424.065 37.8534 425.428 38.4029L425.802 37.4754L425.428 38.4029C429.887 40.1999 434.405 42.3261 438.23 44.1785C439.805 44.9415 441.7 44.2039 442.338 42.5698L450.159 22.5487C450.614 21.3835 450.301 20.0441 449.342 19.2151Z" fill="#ED6E12" stroke="white" stroke-width="2"/>
<path d="M296.582 126.094L304.473 156.869C304.87 158.417 306.265 159.5 307.864 159.5H329.684C331.999 159.5 333.676 157.293 333.057 155.063L292.497 9.06304C292.077 7.54821 290.697 6.49988 289.125 6.49988H267.875C266.303 6.49988 264.923 7.54822 264.503 9.06304L223.943 155.063C223.324 157.293 225.001 159.5 227.316 159.5H248.423C250.021 159.5 251.416 158.417 251.813 156.869L259.704 126.094H296.582ZM288.736 95.617H267.554L278.173 54.2765L288.736 95.617Z" fill="url(#paint2_linear_78_14)" stroke="white" stroke-width="5"/>
<path d="M287.338 91.4896L280.434 65.328C279.91 63.3417 277.09 63.3417 276.566 65.328L269.662 91.4896C269.328 92.7581 270.284 93.9999 271.596 93.9999H285.404C286.716 93.9999 287.672 92.7581 287.338 91.4896Z" fill="#ED6E12" stroke="white" stroke-width="3"/>
<path d="M127 158.5H195C197.485 158.5 199.5 156.485 199.5 154V129.034C199.5 126.549 197.485 124.534 195 124.534H159.613V9.99988C159.613 7.5146 157.598 5.49988 155.113 5.49988H127C124.515 5.49988 122.5 7.51459 122.5 9.99988V154C122.5 156.485 124.515 158.5 127 158.5Z" fill="url(#paint3_linear_78_14)" stroke="white" stroke-width="5"/>
<path d="M127 139.5H129.568C130.397 139.5 131.068 140.171 131.068 141V149.13C131.068 150.511 132.187 151.63 133.568 151.63H140C140.828 151.63 141.5 152.302 141.5 153.13V155C141.5 155.828 140.828 156.5 140 156.5H127C126.172 156.5 125.5 155.828 125.5 155V141C125.5 140.171 126.172 139.5 127 139.5Z" fill="#ED6E12" stroke="white"/>
<path d="M6 158.5H39.8498C57.6517 158.5 71.9577 154.92 82.4935 147.47C93.1573 139.929 98.5 129.247 98.5 115.723C98.5 106.023 95.9974 97.732 90.8444 91.0178C86.2523 85.0345 79.6856 80.4723 71.3067 77.242C76.5884 74.2521 80.7493 70.4752 83.6957 65.8757C87.1657 60.4588 88.8473 54.0626 88.8473 46.797C88.8473 34.0586 83.4957 23.8595 72.9565 16.4229C62.5169 9.05656 48.7342 5.49988 31.8451 5.49988H6C4.06699 5.49988 2.5 7.0669 2.5 8.99988V155C2.5 156.933 4.06701 158.5 6 158.5Z" fill="url(#paint4_linear_78_14)" stroke="white" stroke-width="5"/>
<rect x="29" y="89.9999" width="13" height="50" rx="5" fill="white"/>
<rect x="45" y="94.9999" width="10" height="40" rx="5" fill="white"/>
<rect x="69" y="105" width="6" height="20" rx="3" fill="white"/>
<rect x="58" y="99.9999" width="8" height="30" rx="4" fill="white"/>
<path d="M65.1852 47.2101C65.1852 58.0801 56.2708 66.9203 45.2393 66.9203C34.2079 66.9203 25.2935 58.0801 25.2935 47.2101C25.2935 36.34 34.2079 27.4999 45.2393 27.4999C56.2708 27.4999 65.1852 36.34 65.1852 47.2101Z" fill="#ED6E12" stroke="white" stroke-width="3"/>
<defs>
<linearGradient id="paint0_linear_78_14" x1="542.503" y1="81.0136" x2="542.503" y2="341.925" gradientUnits="userSpaceOnUse">
<stop stop-color="#084F8C"/>
<stop offset="1" stop-color="white"/>
</linearGradient>
<linearGradient id="paint1_linear_78_14" x1="407.252" y1="81.0136" x2="407.252" y2="342.952" gradientUnits="userSpaceOnUse">
<stop stop-color="#084F8C"/>
<stop offset="1" stop-color="white"/>
</linearGradient>
<linearGradient id="paint2_linear_78_14" x1="279" y1="82.9999" x2="279" y2="333.5" gradientUnits="userSpaceOnUse">
<stop stop-color="#084F8C"/>
<stop offset="1" stop-color="white"/>
</linearGradient>
<linearGradient id="paint3_linear_78_14" x1="161" y1="81.9999" x2="161" y2="332.5" gradientUnits="userSpaceOnUse">
<stop stop-color="#084F8C"/>
<stop offset="1" stop-color="white"/>
</linearGradient>
<linearGradient id="paint4_linear_78_14" x1="50.7559" y1="81.9999" x2="50.7559" y2="331.5" gradientUnits="userSpaceOnUse">
<stop stop-color="#084F8C"/>
<stop offset="1" stop-color="white"/>
</linearGradient>
</defs>
</svg>
