<svg width="26" height="24" viewBox="0 0 26 24" fill="none" xmlns="http://www.w3.org/2000/svg">
<path d="M13.487 0.32074C8.92889 0.32074 4.90632 2.95084 3.03318 6.93793L1.73017 4.23236L0.0859375 5.02434L2.79197 10.6414L8.40904 7.93523L7.61691 6.2913L4.69074 7.70068C6.27146 4.35254 9.65432 2.14574 13.487 2.14574C18.853 2.14574 23.2184 6.51134 23.2184 11.8773C23.2184 17.2433 18.853 21.609 13.487 21.609C10.3274 21.609 7.35222 20.0654 5.52891 17.48L4.03724 18.5321C6.20282 21.6014 9.73522 23.4339 13.487 23.4339C19.8588 23.4339 25.0429 18.2496 25.0429 11.8773C25.0429 5.50497 19.8588 0.32074 13.487 0.32074Z" fill="#F18B41"/>
</svg>
