<svg width="27" height="27" viewBox="0 0 27 27" fill="none" xmlns="http://www.w3.org/2000/svg">
<path d="M21.0263 12.9713C20.385 12.8025 19.6313 12.7125 18.7313 12.7125C17.4825 12.7125 17.0213 13.0163 16.38 13.5C16.3463 13.5225 16.3125 13.5563 16.2788 13.59L15.21 14.7263C14.3213 15.6825 12.69 15.6825 11.79 14.7263L10.7213 13.6013C10.6875 13.5563 10.6538 13.5225 10.62 13.5C9.96751 13.0163 9.50626 12.7125 8.26876 12.7125C7.36876 12.7125 6.61501 12.7913 5.97376 12.9713C3.29626 13.6913 3.29626 15.8175 3.29626 17.685V18.7313C3.29626 21.555 3.29626 24.75 9.31501 24.75H17.685C21.6788 24.75 23.7038 22.725 23.7038 18.7313V17.685C23.7038 15.8175 23.7038 13.6913 21.0263 12.9713Z" fill="#00529C"/>
<path d="M16.6388 2.25H10.3613C5.38876 2.25 5.38876 4.89375 5.38876 7.2225V11.385C5.43376 11.3625 5.49001 11.3512 5.53501 11.34C6.32251 11.1263 7.21126 11.025 8.26876 11.025C10.0013 11.025 10.8225 11.5312 11.6325 12.15C11.745 12.2288 11.8575 12.33 11.9588 12.4425L13.0163 13.5563C13.1288 13.68 13.3088 13.7475 13.5 13.7475C13.6913 13.7475 13.8713 13.68 13.9725 13.5675L15.0525 12.4313C15.1425 12.3413 15.2438 12.24 15.3563 12.1613C16.1888 11.5312 16.9988 11.025 18.7313 11.025C19.7888 11.025 20.6775 11.1263 21.465 11.34C21.51 11.3512 21.5663 11.3625 21.6113 11.385V7.2225C21.6113 4.89375 21.6113 2.25 16.6388 2.25ZM15.2438 9.5625H11.7563C11.3288 9.5625 10.9688 9.2025 10.9688 8.775C10.9688 8.33625 11.3288 7.9875 11.7563 7.9875H15.2438C15.6713 7.9875 16.0313 8.33625 16.0313 8.775C16.0313 9.2025 15.6713 9.5625 15.2438 9.5625ZM16.1213 6.42375H10.8788C10.4513 6.42375 10.1025 6.06375 10.1025 5.63625C10.1025 5.1975 10.4513 4.84875 10.8788 4.84875H16.1213C16.5488 4.84875 16.8975 5.1975 16.8975 5.63625C16.8975 6.06375 16.5488 6.42375 16.1213 6.42375Z" fill="#00529C"/>
</svg>
