<svg width="160" height="142" viewBox="0 0 160 142" fill="none" xmlns="http://www.w3.org/2000/svg">
<path d="M109.641 135.932H59.4419C59.4419 135.932 18.634 136.908 6.6572 114.007C-7.86691 86.2351 22.1274 74.2564 35.5239 70.8876C66.0401 63.2139 78.4114 43.8467 82.9477 39.8277C104.728 20.5311 132.846 30.941 143.568 39.8278C163.487 56.3382 164.248 90.7466 143.568 114.007C124.075 135.932 109.641 135.932 109.641 135.932Z" fill="#EAF3FA"/>
<path fill-rule="evenodd" clip-rule="evenodd" d="M134.31 10.287C135.423 10.287 136.326 9.39579 136.326 8.29645C136.326 7.1971 135.423 6.30591 134.31 6.30591C133.196 6.30591 132.293 7.1971 132.293 8.29645C132.293 9.39579 133.196 10.287 134.31 10.287Z" fill="white" stroke="#E37519" stroke-width="1.43571"/>
<path fill-rule="evenodd" clip-rule="evenodd" d="M50.9523 4.97888C52.0661 4.97888 52.969 4.08769 52.969 2.98834C52.969 1.889 52.0661 0.997803 50.9523 0.997803C49.8385 0.997803 48.9355 1.889 48.9355 2.98834C48.9355 4.08769 49.8385 4.97888 50.9523 4.97888Z" fill="white" stroke="#E37519" stroke-width="1.43571"/>
<path fill-rule="evenodd" clip-rule="evenodd" d="M154.476 71.9956C155.219 71.9956 155.821 71.4015 155.821 70.6686C155.821 69.9357 155.219 69.3416 154.476 69.3416C153.734 69.3416 153.132 69.9357 153.132 70.6686C153.132 71.4015 153.734 71.9956 154.476 71.9956Z" stroke="#C0DBF1" stroke-width="1.43571"/>
<path fill-rule="evenodd" clip-rule="evenodd" d="M25.408 71.9956C26.1505 71.9956 26.7524 71.4015 26.7524 70.6686C26.7524 69.9357 26.1505 69.3416 25.408 69.3416C24.6654 69.3416 24.0635 69.9357 24.0635 70.6686C24.0635 71.4015 24.6654 71.9956 25.408 71.9956Z" stroke="#C0DBF1" stroke-width="1.43571"/>
<path fill-rule="evenodd" clip-rule="evenodd" d="M25.4086 103.844C25.7798 103.844 26.0808 103.547 26.0808 103.18C26.0808 102.814 25.7798 102.517 25.4086 102.517C25.0373 102.517 24.7363 102.814 24.7363 103.18C24.7363 103.547 25.0373 103.844 25.4086 103.844Z" fill="white" stroke="#E37519" stroke-width="1.43571"/>
<path fill-rule="evenodd" clip-rule="evenodd" d="M1.87927 60.0524C2.25054 60.0524 2.55151 59.7553 2.55151 59.3889C2.55151 59.0224 2.25054 58.7253 1.87927 58.7253C1.508 58.7253 1.20703 59.0224 1.20703 59.3889C1.20703 59.7553 1.508 60.0524 1.87927 60.0524Z" fill="white" stroke="#E37519" stroke-width="1.43571"/>
<path fill-rule="evenodd" clip-rule="evenodd" d="M107.421 14.2675C107.793 14.2675 108.094 13.9704 108.094 13.6039C108.094 13.2375 107.793 12.9404 107.421 12.9404C107.05 12.9404 106.749 13.2375 106.749 13.6039C106.749 13.9704 107.05 14.2675 107.421 14.2675Z" fill="white" stroke="#E37519" stroke-width="1.43571"/>
<path fill-rule="evenodd" clip-rule="evenodd" d="M68.431 137.683C68.8023 137.683 69.1033 137.386 69.1033 137.02C69.1033 136.654 68.8023 136.356 68.431 136.356C68.0598 136.356 67.7588 136.654 67.7588 137.02C67.7588 137.386 68.0598 137.683 68.431 137.683Z" fill="white" stroke="#E37519" stroke-width="1.43571"/>
<path fill-rule="evenodd" clip-rule="evenodd" d="M124.227 140.998C124.598 140.998 124.899 140.701 124.899 140.334C124.899 139.968 124.598 139.671 124.227 139.671C123.856 139.671 123.555 139.968 123.555 140.334C123.555 140.701 123.856 140.998 124.227 140.998Z" stroke="#C0DBF1" stroke-width="1.43571"/>
<path fill-rule="evenodd" clip-rule="evenodd" d="M157.838 30.192C158.21 30.192 158.51 29.8949 158.51 29.5285C158.51 29.1621 158.21 28.865 157.838 28.865C157.467 28.865 157.166 29.1621 157.166 29.5285C157.166 29.8949 157.467 30.192 157.838 30.192Z" stroke="#C0DBF1" stroke-width="1.43571"/>
<path fill-rule="evenodd" clip-rule="evenodd" d="M15.324 35.5005C16.0665 35.5005 16.6684 34.9064 16.6684 34.1735C16.6684 33.4406 16.0665 32.8464 15.324 32.8464C14.5814 32.8464 13.9795 33.4406 13.9795 34.1735C13.9795 34.9064 14.5814 35.5005 15.324 35.5005Z" stroke="#C0DBF1" stroke-width="1.43571"/>
<path d="M93.2317 37.8622L123.183 87.7477C127.487 94.9125 125.373 104.339 118.458 108.8C116.138 110.302 113.432 111.103 110.668 111.106H50.7613C42.6221 111.106 36.0205 104.267 36.0205 95.8243C36.0205 92.9682 36.7938 90.1747 38.2464 87.7477L68.2018 37.8622C72.5016 30.6974 81.5928 28.5028 88.5073 32.9635C90.4203 34.1971 92.0383 35.8732 93.2317 37.8622ZM80.7167 93.2274C81.9022 93.2274 83.039 92.7565 83.8772 91.9183C84.7155 91.0801 85.1864 89.9432 85.1864 88.7578C85.1864 87.5724 84.7155 86.4355 83.8772 85.5973C83.039 84.7591 81.9022 84.2882 80.7167 84.2882C79.5313 84.2882 78.3945 84.7591 77.5563 85.5973C76.718 86.4355 76.2471 87.5724 76.2471 88.7578C76.2471 89.9432 76.718 91.0801 77.5563 91.9183C78.3945 92.7565 79.5313 93.2274 80.7167 93.2274ZM80.7167 53.0008C79.5313 53.0008 78.3945 53.4717 77.5563 54.3099C76.718 55.1481 76.2471 56.285 76.2471 57.4704V75.3489C76.2471 76.5343 76.718 77.6712 77.5563 78.5094C78.3945 79.3476 79.5313 79.8186 80.7167 79.8186C81.9022 79.8186 83.039 79.3476 83.8772 78.5094C84.7155 77.6712 85.1864 76.5343 85.1864 75.3489V57.4704C85.1864 56.285 84.7155 55.1481 83.8772 54.3099C83.039 53.4717 81.9022 53.0008 80.7167 53.0008Z" fill="#E84040"/>
</svg>
