<svg width="32" height="32" viewBox="0 0 32 32" fill="none" xmlns="http://www.w3.org/2000/svg">
<path d="M16 2.66139C18.5955 2.65797 21.0903 3.66518 22.956 5.4696C24.8216 7.27402 25.9115 9.73389 25.9946 12.3281L26 12.6614V18.1241L27.84 22.3321C27.951 22.5856 27.9971 22.8628 27.974 23.1386C27.951 23.4145 27.8596 23.6802 27.708 23.9118C27.5565 24.1434 27.3496 24.3336 27.1061 24.4652C26.8626 24.5968 26.5901 24.6656 26.3133 24.6654L20 24.6694C20.0013 25.7107 19.5966 26.7115 18.8717 27.4591C18.1468 28.2067 17.1589 28.6421 16.118 28.6729C15.0772 28.7036 14.0653 28.3272 13.2976 27.6237C12.5298 26.9202 12.0667 25.945 12.0066 24.9054L12 24.6654H5.69998C5.42372 24.6651 5.15188 24.5961 4.90885 24.4648C4.66582 24.3334 4.45922 24.1438 4.3076 23.9128C4.15599 23.6819 4.0641 23.4169 4.04019 23.1417C4.01629 22.8665 4.06111 22.5897 4.17064 22.3361L5.99998 18.1254V12.6614C5.99998 7.12139 10.4693 2.66139 16 2.66139ZM18 24.6667L14 24.6694C13.9999 25.1831 14.1975 25.6772 14.5518 26.0492C14.9062 26.4212 15.3901 26.6425 15.9032 26.6674C16.4163 26.6922 16.9194 26.5187 17.308 26.1827C17.6966 25.8467 17.9411 25.3741 17.9906 24.8627L18 24.6667ZM16 4.66139C11.5733 4.66139 7.99998 8.22672 7.99998 12.6614V18.5414L6.20798 22.6667H25.804L24 18.5427V12.6787L23.996 12.3787C23.9267 10.3057 23.0534 8.34103 21.561 6.90061C20.0685 5.46019 18.0741 4.65711 16 4.66139Z" fill="#00529C"/>
</svg>
