<svg width="19" height="19" viewBox="0 0 19 19" fill="none" xmlns="http://www.w3.org/2000/svg">
<path d="M16.4306 15.357L13.6254 12.5745C14.7142 11.2168 15.2416 9.49354 15.0989 7.75902C14.9562 6.02449 14.1544 4.41055 12.8583 3.24905C11.5622 2.08755 9.87035 1.46678 8.13062 1.51439C6.39088 1.56199 4.73551 2.27435 3.50487 3.50499C2.27423 4.73563 1.56187 6.39101 1.51427 8.13074C1.46666 9.87047 2.08743 11.5623 3.24893 12.8584C4.41042 14.1545 6.02437 14.9563 7.75889 15.099C9.49342 15.2417 11.2167 14.7144 12.5744 13.6255L15.3569 16.408C15.4272 16.4789 15.5108 16.5351 15.6029 16.5735C15.6951 16.6119 15.7939 16.6316 15.8937 16.6316C15.9935 16.6316 16.0924 16.6119 16.1845 16.5735C16.2766 16.5351 16.3603 16.4789 16.4306 16.408C16.5668 16.267 16.643 16.0786 16.643 15.8825C16.643 15.6864 16.5668 15.498 16.4306 15.357ZM8.33256 13.6255C7.28574 13.6255 6.26243 13.3151 5.39203 12.7335C4.52164 12.1519 3.84324 11.3253 3.44264 10.3582C3.04204 9.39102 2.93723 8.32681 3.14145 7.30011C3.34568 6.2734 3.84977 5.33031 4.58998 4.5901C5.33019 3.84989 6.27328 3.3458 7.29998 3.14157C8.32669 2.93735 9.39089 3.04217 10.358 3.44277C11.3252 3.84337 12.1518 4.52176 12.7334 5.39216C13.3149 6.26255 13.6254 7.28586 13.6254 8.33268C13.6254 9.73642 13.0677 11.0827 12.0751 12.0753C11.0825 13.0679 9.7363 13.6255 8.33256 13.6255Z" fill="white"/>
</svg>
